<?xml version="1.0" standalone="no"?>
<!DOCTYPE svg PUBLIC "-//W3C//DTD SVG 20010904//EN"
 "http://www.w3.org/TR/2001/REC-SVG-20010904/DTD/svg10.dtd">
<svg version="1.0" xmlns="http://www.w3.org/2000/svg"
 width="1820.000000pt" height="1213.000000pt" viewBox="0 0 1820.000000 1213.000000"
 preserveAspectRatio="xMidYMid meet">

<g transform="translate(0.000000,1213.000000) scale(0.100000,-0.100000)"
fill="#000000" stroke="none">
<path d="M1799 7361 c-34 -21 -51 -41 -67 -79 -26 -60 -27 -90 -7 -140 73
-172 306 -156 354 26 41 153 -143 281 -280 193z"/>
<path d="M3334 7371 c-138 -63 -137 -265 2 -331 114 -53 247 20 261 144 17
147 -126 249 -263 187z"/>
<path d="M4472 7375 c-74 -40 -107 -104 -100 -190 8 -92 89 -165 184 -165 67
0 155 65 170 126 5 20 9 22 20 13 8 -6 14 -16 14 -22 0 -5 12 -26 26 -45 30
-39 94 -71 142 -72 67 0 148 51 172 111 7 16 15 29 19 28 3 0 20 -21 36 -47
53 -84 153 -114 235 -72 69 35 119 127 105 193 -20 92 -83 149 -173 155 -79 5
-137 -26 -173 -93 l-27 -48 -16 27 c-9 14 -23 37 -30 50 -22 35 -93 66 -153
66 -43 0 -59 -6 -95 -33 -24 -18 -51 -49 -61 -70 -21 -43 -33 -46 -43 -14 -10
34 -42 70 -82 94 -42 26 -131 30 -170 8z"/>
<path d="M6350 7362 c-77 -49 -109 -144 -76 -223 19 -45 48 -74 98 -100 82
-42 195 -3 238 81 23 45 35 50 44 18 13 -55 107 -117 174 -118 48 0 120 38
148 79 13 19 24 41 24 48 0 7 7 13 15 13 8 0 15 -7 15 -15 0 -23 71 -96 107
-112 83 -34 188 7 231 90 l24 47 32 -52 c52 -86 151 -121 229 -82 48 24 95 73
102 106 9 38 22 35 40 -9 22 -51 43 -72 93 -94 53 -23 91 -24 140 -3 114 47
154 174 87 276 -36 55 -94 81 -167 76 -70 -5 -122 -41 -154 -108 l-21 -44 -21
47 c-41 94 -159 134 -252 87 -41 -21 -83 -69 -95 -109 -7 -24 -8 -23 -26 14
-25 51 -46 73 -91 96 -94 48 -231 -5 -254 -98 -7 -27 -22 -30 -31 -5 -13 35
-46 74 -84 98 -49 31 -123 33 -179 4 -38 -19 -90 -81 -90 -107 0 -25 -18 -13
-37 24 -11 20 -36 50 -57 67 -30 25 -48 31 -99 34 -55 3 -67 0 -107 -26z"/>
<path d="M8630 7366 c-128 -67 -122 -257 10 -323 160 -82 325 90 242 252 -45
89 -157 120 -252 71z"/>
<path d="M10147 7369 c-97 -51 -126 -194 -54 -275 74 -85 164 -96 260 -31 57
38 84 141 56 214 -36 95 -168 142 -262 92z"/>
<path d="M10915 7373 c-69 -36 -105 -95 -105 -170 1 -119 129 -211 243 -174
38 13 117 91 117 116 0 8 7 15 15 15 8 0 15 -6 15 -13 0 -28 51 -85 94 -106
76 -35 150 -22 212 38 19 19 37 45 40 58 9 33 21 29 44 -17 27 -52 87 -92 148
-98 109 -10 210 90 200 197 -18 188 -264 236 -351 68 -19 -37 -37 -49 -37 -24
0 26 -52 88 -92 108 -34 17 -53 20 -101 16 -69 -6 -118 -39 -150 -100 -22 -43
-32 -46 -41 -14 -22 91 -163 147 -251 100z"/>
<path d="M12435 7378 c-32 -17 -76 -61 -91 -90 -17 -32 -18 -115 -3 -155 23
-62 100 -112 172 -113 71 0 159 65 173 128 3 15 7 35 9 44 5 29 -15 99 -36
127 -36 46 -88 71 -149 71 -30 0 -64 -6 -75 -12z"/>
<path d="M13929 7361 c-52 -32 -80 -83 -86 -151 -5 -54 23 -108 79 -153 111
-90 288 0 288 145 0 149 -157 238 -281 159z"/>
<path d="M15085 7373 c-46 -24 -66 -45 -86 -88 -34 -73 -20 -153 36 -210 60
-59 136 -70 215 -30 40 20 55 36 76 77 l26 52 24 -47 c46 -90 158 -131 241
-89 46 24 90 72 99 108 8 30 21 31 29 2 21 -67 106 -128 178 -128 65 1 155 62
172 118 8 26 23 29 32 5 13 -39 58 -86 97 -104 98 -44 208 1 251 103 21 52 19
86 -11 146 -19 38 -38 59 -70 78 -90 53 -210 16 -257 -79 -18 -37 -37 -49 -37
-24 0 26 -52 88 -90 107 -98 50 -226 2 -261 -98 -12 -35 -29 -43 -29 -14 0 27
-46 84 -88 109 -93 57 -228 4 -270 -107 l-10 -25 -11 29 c-32 81 -97 126 -178
126 -26 -1 -61 -8 -78 -17z"/>
<path d="M1848 6816 c-64 -23 -89 -46 -115 -103 -30 -66 -27 -115 10 -172 78
-118 237 -117 310 1 17 26 33 48 37 48 4 0 13 -14 20 -30 28 -67 125 -119 193
-104 98 21 157 90 157 183 0 62 -16 97 -64 139 -91 80 -233 51 -283 -58 -10
-22 -21 -40 -25 -40 -3 0 -16 20 -28 45 -37 76 -136 119 -212 91z"/>
<path d="M3375 6821 c-101 -25 -161 -120 -141 -227 9 -47 67 -109 121 -130
168 -64 319 150 203 290 -47 57 -117 83 -183 67z"/>
<path d="M4128 6820 c-126 -38 -179 -175 -108 -282 30 -45 102 -88 147 -88
108 0 204 106 190 211 -14 104 -134 188 -229 159z"/>
<path d="M5650 6821 c-94 -29 -143 -90 -143 -179 0 -94 47 -156 137 -182 55
-15 111 -3 162 35 68 52 86 167 37 242 -41 64 -130 103 -193 84z"/>
<path d="M7163 6820 c-50 -12 -103 -58 -125 -108 -42 -93 -4 -190 93 -240 120
-63 269 43 257 183 -9 108 -121 190 -225 165z"/>
<path d="M8684 6821 c-127 -31 -187 -173 -119 -281 26 -42 106 -90 149 -90
118 -1 219 124 187 231 -18 60 -38 86 -85 113 -49 29 -90 37 -132 27z"/>
<path d="M10200 6821 c-112 -35 -165 -119 -141 -227 20 -87 111 -152 195 -140
126 20 200 145 152 259 -17 43 -76 93 -123 106 -43 12 -48 12 -83 2z"/>
<path d="M11335 6821 c-45 -11 -69 -27 -103 -65 -51 -59 -56 -155 -10 -221 26
-38 103 -85 139 -85 92 0 182 72 194 154 21 134 -95 248 -220 217z"/>
<path d="M12475 6821 c-43 -11 -65 -25 -105 -66 -34 -35 -35 -39 -35 -114 0
-69 3 -82 27 -113 29 -37 102 -78 141 -78 74 0 168 64 183 125 8 31 21 32 29
3 22 -73 116 -134 191 -125 137 15 214 171 141 284 -76 119 -259 111 -319 -13
-21 -43 -38 -57 -38 -31 0 7 -11 29 -25 50 -40 58 -126 94 -190 78z"/>
<path d="M13996 6822 c-16 -2 -46 -15 -68 -28 -126 -80 -109 -265 30 -325 57
-25 86 -24 149 5 67 32 103 89 103 165 0 58 -10 82 -49 124 -43 48 -100 68
-165 59z"/>
<path d="M14725 6815 c-118 -42 -163 -200 -82 -291 81 -93 199 -94 281 -4 39
44 51 89 41 155 -15 106 -137 177 -240 140z"/>
<path d="M1855 6254 c-35 -9 -98 -58 -117 -93 -11 -19 -21 -55 -24 -80 -4 -39
0 -55 26 -99 25 -43 42 -58 83 -78 63 -29 82 -30 139 -5 109 47 151 157 99
259 -34 66 -133 113 -206 96z"/>
<path d="M2607 6250 c-69 -21 -136 -104 -137 -170 0 -51 23 -106 59 -140 120
-114 299 -42 308 125 5 83 -22 130 -96 168 -56 28 -85 32 -134 17z"/>
<path d="M3345 6241 c-52 -23 -102 -81 -111 -126 -20 -106 41 -202 143 -223
43 -10 59 -9 98 6 160 59 166 272 10 343 -51 23 -89 23 -140 0z"/>
<path d="M4090 6233 c-160 -82 -123 -310 57 -348 77 -16 181 52 203 134 22 82
-8 159 -79 207 -60 39 -114 42 -181 7z"/>
<path d="M5620 6245 c-77 -35 -113 -92 -113 -177 0 -95 62 -164 166 -183 57
-11 139 33 173 91 23 38 26 54 22 107 -4 70 -30 114 -85 148 -44 27 -119 33
-163 14z"/>
<path d="M7135 6242 c-196 -92 -118 -379 96 -352 55 7 88 27 126 77 24 32 28
45 28 104 0 75 -13 100 -76 151 -47 38 -118 46 -174 20z"/>
<path d="M8675 6252 c-87 -31 -137 -95 -139 -177 -1 -125 115 -214 234 -179
61 18 95 45 116 94 10 22 20 40 23 40 4 0 15 -19 26 -42 23 -46 67 -82 124
-99 73 -22 170 25 206 99 23 48 31 52 40 20 22 -72 129 -137 199 -122 58 12
107 47 136 97 l27 48 31 -50 c32 -51 81 -85 136 -95 65 -12 160 42 195 112 16
30 24 28 44 -12 36 -75 141 -118 221 -90 78 28 126 94 126 174 0 121 -124 216
-235 180 -46 -15 -99 -61 -115 -100 -7 -16 -16 -30 -20 -30 -5 0 -19 19 -32
42 -32 58 -115 102 -176 94 -58 -8 -122 -52 -151 -104 l-23 -43 -20 38 c-29
55 -44 69 -100 93 -39 16 -61 20 -94 15 -57 -8 -122 -57 -142 -106 -8 -21 -18
-39 -21 -39 -3 0 -15 19 -26 42 -12 25 -39 55 -64 73 -35 25 -52 30 -101 30
-49 0 -66 -5 -101 -30 -25 -18 -52 -48 -64 -73 -11 -23 -22 -42 -25 -42 -3 1
-14 20 -25 43 -35 73 -141 123 -210 99z"/>
<path d="M11305 6241 c-165 -76 -151 -297 23 -347 49 -15 57 -14 103 3 163 58
171 273 14 344 -51 23 -90 23 -140 0z"/>
<path d="M12457 6250 c-44 -13 -92 -55 -112 -96 -24 -52 -18 -148 14 -190 71
-96 233 -100 299 -7 105 148 -30 344 -201 293z"/>
<path d="M13230 6254 c-83 -31 -123 -70 -141 -136 -23 -87 24 -180 110 -217
63 -27 81 -26 144 4 55 26 91 68 107 126 19 65 -18 155 -80 194 -40 25 -111
40 -140 29z"/>
<path d="M13953 6239 c-128 -63 -149 -231 -41 -312 94 -70 197 -53 268 44 25
35 30 52 30 97 0 79 -35 136 -103 168 -64 29 -100 30 -154 3z"/>
<path d="M14715 6241 c-159 -72 -149 -292 16 -346 44 -15 57 -15 96 -4 177 49
194 273 28 350 -50 23 -89 23 -140 0z"/>
<path d="M15463 6236 c-84 -40 -127 -142 -94 -229 19 -49 71 -96 126 -113 51
-16 56 -16 100 0 60 23 101 59 117 101 15 43 22 44 38 6 31 -77 133 -132 207
-112 71 20 115 58 148 126 2 6 10 1 17 -9 57 -86 141 -135 204 -120 100 24
158 92 158 184 0 69 -25 115 -85 155 -88 59 -211 28 -259 -65 -11 -22 -24 -40
-29 -40 -5 0 -14 14 -21 30 -28 68 -124 119 -199 105 -52 -9 -105 -50 -132
-101 -27 -50 -34 -54 -43 -20 -15 60 -104 125 -171 126 -16 0 -53 -11 -82 -24z"/>
<path d="M1820 5668 c-59 -31 -98 -82 -106 -140 -6 -39 -2 -57 19 -100 42 -84
118 -121 212 -104 85 16 158 131 136 214 -16 58 -51 103 -100 129 -56 29 -105
29 -161 1z"/>
<path d="M2950 5666 c-57 -30 -99 -100 -100 -167 0 -95 86 -179 185 -179 76 0
156 55 171 117 8 30 30 30 38 0 23 -93 160 -146 254 -98 46 23 67 46 87 94 30
73 14 147 -46 204 -57 53 -125 67 -192 39 -39 -16 -91 -68 -108 -108 l-12 -29
-29 50 c-21 38 -40 57 -78 76 -62 31 -113 32 -170 1z"/>
<path d="M4111 5679 c-112 -45 -158 -180 -93 -274 101 -145 318 -93 338 82 16
127 -127 239 -245 192z"/>
<path d="M5609 5670 c-137 -72 -140 -264 -6 -329 81 -39 167 -23 224 42 36 41
48 87 40 153 -13 116 -154 189 -258 134z"/>
<path d="M7133 5674 c-100 -51 -138 -153 -94 -249 22 -48 44 -69 94 -90 161
-67 312 95 236 253 -41 83 -158 126 -236 86z"/>
<path d="M8640 5668 c-63 -32 -102 -93 -102 -161 -1 -62 18 -102 66 -145 59
-51 155 -56 222 -10 35 24 84 106 84 142 0 73 -48 147 -115 177 -54 25 -102
24 -155 -3z"/>
<path d="M10165 5675 c-110 -59 -144 -179 -79 -278 61 -92 208 -103 286 -20
77 81 61 218 -33 280 -51 33 -130 42 -174 18z"/>
<path d="M11292 5669 c-66 -33 -97 -87 -97 -169 0 -58 4 -72 28 -103 94 -124
285 -92 328 53 18 61 4 125 -39 172 -64 70 -140 86 -220 47z"/>
<path d="M12434 5671 c-60 -27 -96 -80 -102 -146 -6 -71 2 -97 40 -141 100
-114 283 -69 318 76 36 150 -115 275 -256 211z"/>
<path d="M13569 5670 c-137 -72 -139 -270 -5 -331 102 -46 222 0 257 99 12 35
29 43 29 14 0 -32 48 -89 95 -112 36 -17 58 -21 101 -18 170 14 226 243 81
335 -101 64 -214 28 -272 -86 l-17 -35 -19 39 c-26 53 -47 75 -94 96 -51 24
-110 23 -156 -1z"/>
<path d="M14715 5677 c-95 -44 -139 -151 -100 -244 30 -72 93 -113 170 -113
185 0 252 234 98 340 -42 29 -124 37 -168 17z"/>
<path d="M16219 5667 c-117 -62 -137 -212 -40 -300 91 -83 230 -55 286 57 29
58 31 92 10 144 -45 106 -158 150 -256 99z"/>
<path d="M1825 5106 c-62 -28 -115 -106 -115 -171 0 -38 31 -104 61 -132 29
-26 90 -53 121 -53 118 0 214 111 189 219 -25 114 -154 183 -256 137z"/>
<path d="M3318 5091 c-135 -86 -108 -291 45 -332 88 -23 173 13 214 90 64 123
-24 271 -162 271 -39 0 -62 -7 -97 -29z"/>
<path d="M4475 5104 c-78 -40 -110 -100 -103 -191 10 -113 119 -185 233 -153
49 14 103 61 117 103 6 15 14 27 19 27 5 0 14 -12 20 -27 23 -61 100 -112 170
-113 59 0 133 44 160 95 13 25 27 45 30 45 4 0 12 -13 19 -29 15 -38 56 -76
102 -95 136 -57 286 73 248 215 -15 56 -84 125 -135 135 -87 16 -168 -22 -210
-99 -11 -20 -22 -37 -25 -37 -3 0 -11 13 -18 29 -17 39 -60 81 -99 97 -90 38
-209 -10 -242 -98 -13 -34 -27 -36 -36 -5 -10 32 -64 87 -102 103 -43 18 -111
18 -148 -2z"/>
<path d="M7106 5090 c-112 -71 -114 -235 -3 -308 33 -22 52 -27 102 -27 78 0
132 33 164 97 83 172 -102 340 -263 238z"/>
<path d="M8645 5105 c-73 -40 -108 -95 -108 -172 0 -163 202 -243 315 -124 82
86 70 202 -27 277 -46 35 -133 44 -180 19z"/>
<path d="M10155 5102 c-52 -32 -93 -87 -100 -135 -18 -118 70 -218 191 -217
42 1 106 33 136 69 49 57 50 165 3 227 -53 69 -164 96 -230 56z"/>
<path d="M10915 5103 c-100 -52 -135 -166 -80 -259 36 -61 86 -89 161 -89 76
0 137 36 163 96 9 21 19 39 23 39 4 0 17 -18 28 -39 10 -22 31 -48 45 -59 91
-71 236 -42 281 57 23 50 36 51 52 6 34 -93 174 -133 267 -75 41 25 85 106 85
156 0 97 -87 184 -182 184 -76 0 -135 -36 -169 -102 -11 -21 -23 -38 -27 -38
-4 0 -15 19 -26 41 -26 57 -93 99 -158 99 -69 0 -123 -30 -160 -91 -17 -27
-34 -49 -37 -49 -3 0 -13 18 -23 40 -23 56 -95 100 -162 100 -28 -1 -64 -8
-81 -17z"/>
<path d="M12435 5104 c-78 -40 -110 -100 -103 -191 13 -152 195 -215 310 -105
92 88 56 256 -65 301 -41 16 -107 13 -142 -5z"/>
<path d="M13960 5107 c-59 -31 -73 -44 -96 -89 -39 -76 -28 -145 33 -209 61
-64 162 -75 235 -25 81 54 104 177 48 254 -52 72 -154 103 -220 69z"/>
<path d="M15066 5090 c-79 -51 -107 -148 -67 -236 62 -137 265 -136 331 2 l23
47 20 -42 c56 -119 207 -147 300 -55 20 20 39 49 42 65 9 39 21 37 35 -6 20
-60 103 -115 174 -115 110 0 200 110 181 223 -8 46 -64 114 -112 134 -95 39
-218 -18 -248 -114 -7 -27 -25 -31 -25 -7 0 31 -42 84 -86 110 -38 22 -54 26
-104 22 -72 -5 -122 -40 -156 -108 l-22 -44 -13 29 c-52 121 -168 161 -273 95z"/>
</g>
</svg>
