<?xml version="1.0" standalone="no"?>
<!DOCTYPE svg PUBLIC "-//W3C//DTD SVG 20010904//EN"
 "http://www.w3.org/TR/2001/REC-SVG-20010904/DTD/svg10.dtd">
<svg version="1.0" xmlns="http://www.w3.org/2000/svg"
 width="866.000000pt" height="650.000000pt" viewBox="0 0 866.000000 650.000000"
 preserveAspectRatio="xMidYMid meet">

<g transform="translate(0.000000,650.000000) scale(0.100000,-0.100000)"
fill="#000000" stroke="none">
<path d="M2170 3885 l0 -115 -120 0 -120 0 0 -70 0 -69 118 -3 117 -3 3 -117
3 -118 69 0 70 0 0 120 0 120 115 0 115 0 0 70 0 70 -115 0 -115 0 0 115 0
115 -70 0 -70 0 0 -115z"/>
<path d="M1030 3130 l0 -640 638 2 637 3 3 363 2 362 -70 0 -70 0 -2 -292 -3
-293 -497 -3 -498 -2 0 500 0 500 295 0 295 0 0 70 0 70 -365 0 -365 0 0 -640z"/>
<path d="M2973 3505 c-66 -18 -117 -50 -166 -104 -130 -144 -124 -424 11 -559
21 -21 66 -52 98 -68 53 -26 69 -29 154 -29 88 0 101 3 162 33 80 39 138 101
170 181 19 46 23 75 23 171 0 108 -2 119 -31 180 -54 115 -120 170 -233 196
-70 17 -122 17 -188 -1z m181 -129 c124 -52 166 -288 75 -430 -55 -87 -179
-112 -267 -53 -140 92 -128 402 18 479 42 22 127 24 174 4z"/>
<path d="M7186 3490 c-98 -38 -155 -131 -142 -228 14 -100 75 -145 262 -192
65 -17 128 -37 141 -46 52 -34 53 -98 1 -137 -37 -28 -136 -34 -193 -12 -44
16 -75 53 -75 89 0 19 -29 26 -95 23 l-50 -3 2 -43 c6 -125 152 -211 337 -198
149 10 244 86 254 201 6 75 -4 120 -35 156 -36 43 -88 67 -220 101 -136 35
-171 51 -179 84 -12 47 4 75 53 97 36 16 58 19 97 14 61 -7 95 -29 119 -79 19
-37 19 -37 83 -37 63 0 64 0 64 28 -1 76 -74 161 -162 187 -73 21 -200 19
-262 -5z"/>
<path d="M3565 3488 c-3 -7 -4 -173 -3 -368 l3 -355 73 -3 72 -3 0 253 1 253
22 -38 c12 -21 82 -135 155 -252 l133 -215 75 0 74 0 0 370 0 371 -72 -3 -73
-3 0 -255 0 -256 -66 116 c-37 63 -105 178 -151 255 l-85 140 -77 3 c-55 2
-78 -1 -81 -10z"/>
<path d="M4340 3130 l0 -370 275 0 275 0 0 60 0 60 -200 0 -201 0 3 103 3 102
173 3 172 2 0 60 0 60 -175 0 -175 0 0 85 0 85 200 0 200 0 0 60 0 60 -275 0
-275 0 0 -370z"/>
<path d="M5050 3130 l0 -371 78 3 77 3 3 133 3 132 112 0 c148 0 201 16 255
74 48 52 66 110 59 182 -9 87 -50 150 -127 190 -30 17 -63 19 -247 22 l-213 3
0 -371z m396 209 c35 -36 42 -94 15 -137 -28 -43 -55 -52 -167 -52 l-94 0 0
111 0 111 110 -4 c102 -3 111 -5 136 -29z"/>
<path d="M5750 3130 l0 -370 250 0 250 0 0 60 0 60 -175 0 -175 0 0 310 0 310
-75 0 -75 0 0 -370z"/>
<path d="M6332 3213 c3 -285 3 -288 29 -338 47 -94 165 -144 307 -132 92 7
145 31 191 84 55 62 61 100 61 408 l0 265 -75 0 -75 0 0 -267 c0 -235 -2 -272
-18 -303 -42 -86 -196 -94 -249 -14 -16 25 -18 57 -21 306 l-3 278 -76 0 -75
0 4 -287z"/>
<path d="M1653 3442 c-17 -3 -23 -10 -23 -28 0 -39 -49 -81 -103 -89 l-47 -7
0 -49 0 -49 70 0 70 0 0 -200 0 -200 70 0 70 0 0 310 c0 241 -3 310 -12 311
-35 3 -75 4 -95 1z"/>
</g>
</svg>
