<?xml version="1.0" standalone="no"?>
<!DOCTYPE svg PUBLIC "-//W3C//DTD SVG 20010904//EN"
 "http://www.w3.org/TR/2001/REC-SVG-20010904/DTD/svg10.dtd">
<svg version="1.0" xmlns="http://www.w3.org/2000/svg"
 width="736.000000pt" height="736.000000pt" viewBox="0 0 736.000000 736.000000"
 preserveAspectRatio="xMidYMid meet">

<g transform="translate(0.000000,736.000000) scale(0.100000,-0.100000)"
fill="#000000" stroke="none">
<path d="M863 4476 c-375 -71 -603 -298 -603 -599 0 -304 226 -531 600 -603
97 -19 312 -19 415 0 325 60 546 243 596 495 15 81 6 209 -20 286 -30 84 -103
188 -175 247 -78 63 -218 131 -326 159 -109 27 -377 35 -487 15z m422 -210
c100 -27 185 -74 246 -137 75 -76 102 -144 102 -254 0 -110 -27 -178 -103
-256 -112 -114 -275 -166 -499 -156 -293 12 -479 134 -522 344 -15 72 -2 169
32 235 58 114 186 197 359 234 85 18 303 12 385 -10z"/>
<path d="M2603 4476 c-105 -20 -198 -52 -281 -97 -41 -21 -75 -39 -78 -39 -2
0 -4 23 -4 50 l0 50 -120 0 -120 0 0 -785 0 -785 120 0 120 0 0 271 c0 149 3
269 8 267 4 -2 50 -24 102 -50 165 -82 350 -114 556 -97 147 11 249 39 372 99
221 109 342 291 342 515 0 281 -197 498 -530 585 -109 28 -376 37 -487 16z
m422 -210 c151 -41 263 -123 317 -234 30 -60 33 -75 33 -157 0 -82 -3 -97 -32
-156 -87 -176 -291 -268 -572 -256 -194 8 -320 54 -421 156 -73 72 -102 144
-104 251 -2 205 136 347 394 405 84 19 300 14 385 -9z"/>
<path d="M4320 4471 c-101 -22 -203 -60 -275 -101 -29 -17 -55 -30 -58 -30 -3
0 -5 15 -5 33 1 73 10 68 -119 65 l-118 -3 -3 -782 -2 -783 120 0 120 0 0 263
c0 145 3 267 6 270 4 4 34 -9 68 -28 148 -82 290 -115 501 -116 403 -1 702
177 789 470 21 72 21 220 0 292 -63 213 -251 373 -515 440 -123 31 -391 36
-509 10z m445 -205 c154 -42 262 -122 317 -234 30 -61 33 -74 33 -162 -1 -86
-4 -100 -32 -155 -60 -116 -193 -207 -353 -241 -115 -24 -319 -15 -426 20 -90
29 -185 86 -227 136 -116 138 -121 332 -10 476 51 67 184 141 293 163 30 6 64
13 75 15 43 10 272 -3 330 -18z"/>
<path d="M6051 4469 c-357 -77 -571 -300 -571 -594 0 -245 142 -435 406 -545
156 -65 408 -91 589 -60 382 64 625 299 625 605 0 276 -204 501 -530 585 -127
33 -389 38 -519 9z m454 -203 c292 -79 426 -324 310 -563 -47 -95 -167 -180
-310 -219 -92 -25 -285 -30 -386 -10 -172 34 -301 122 -361 244 -30 60 -33 75
-33 157 0 76 4 99 26 145 62 133 201 227 387 260 72 13 298 4 367 -14z"/>
</g>
</svg>
