<?xml version="1.0" standalone="no"?>
<!DOCTYPE svg PUBLIC "-//W3C//DTD SVG 20010904//EN"
 "http://www.w3.org/TR/2001/REC-SVG-20010904/DTD/svg10.dtd">
<svg version="1.0" xmlns="http://www.w3.org/2000/svg"
 width="725.000000pt" height="500.000000pt" viewBox="0 0 725.000000 500.000000"
 preserveAspectRatio="xMidYMid meet">

<g transform="translate(0.000000,500.000000) scale(0.100000,-0.100000)"
fill="#000000" stroke="none">
<path d="M3795 4602 c-285 -165 -520 -303 -522 -308 -1 -5 328 -583 731 -1284
l734 -1275 706 -3 c402 -1 706 2 706 7 0 12 -1818 3155 -1828 3159 -4 1 -241
-132 -527 -296z"/>
<path d="M2583 3487 c-288 -166 -523 -306 -523 -311 0 -4 187 -331 415 -725
l415 -717 0 -152 0 -152 150 0 150 0 0 150 0 150 555 2 554 3 -592 1027 c-326
565 -594 1027 -597 1027 -3 0 -240 -136 -527 -302z"/>
<path d="M1370 2417 c-267 -155 -502 -292 -522 -304 l-38 -22 103 -178 102
-178 708 -3 709 -2 -34 59 c-240 425 -525 910 -533 910 -5 0 -228 -127 -495
-282z"/>
<path d="M2440 1480 c0 -137 -2 -250 -5 -250 -3 0 -36 15 -73 34 -122 62 -276
80 -417 51 -226 -47 -421 -232 -481 -455 -27 -102 -23 -245 10 -347 121 -375
556 -553 902 -369 l64 34 0 -39 0 -39 150 0 150 0 0 815 0 815 -150 0 -150 0
0 -250z m-202 -464 c71 -36 132 -99 168 -171 24 -51 29 -72 29 -140 0 -71 -4
-88 -33 -147 -40 -82 -111 -149 -190 -178 -46 -18 -73 -21 -142 -18 -73 3 -94
9 -148 38 -101 54 -160 133 -182 247 -31 155 67 319 227 384 72 29 199 22 271
-15z"/>
<path d="M4310 1480 c0 -137 -2 -250 -4 -250 -2 0 -37 16 -78 35 -250 119
-536 70 -728 -124 -129 -129 -184 -264 -183 -446 3 -463 490 -762 912 -560 40
19 75 35 77 35 2 0 4 -16 4 -35 l0 -35 150 0 150 0 0 815 0 815 -150 0 -150 0
0 -250z m-208 -462 c72 -34 137 -98 174 -173 24 -51 29 -72 29 -140 0 -71 -4
-88 -33 -147 -36 -74 -96 -133 -170 -170 -40 -19 -63 -23 -147 -23 -89 0 -106
3 -150 27 -65 34 -129 98 -163 163 -24 44 -27 62 -27 145 0 84 3 102 28 152
35 71 119 149 190 177 75 30 191 25 269 -11z"/>
<path d="M540 1315 c-113 -25 -224 -88 -310 -174 -181 -182 -233 -430 -140
-668 134 -346 548 -503 881 -333 33 16 62 30 64 30 3 0 5 -16 5 -35 l0 -35
150 0 150 0 0 610 0 610 -150 0 -150 0 0 -45 c0 -25 -3 -45 -6 -45 -3 0 -24
11 -47 24 -111 64 -312 91 -447 61z m308 -305 c74 -39 125 -92 161 -169 22
-47 26 -70 26 -141 0 -73 -4 -93 -28 -142 -36 -74 -119 -150 -195 -178 -47
-18 -73 -21 -142 -18 -73 3 -94 9 -148 38 -135 72 -202 207 -179 359 11 74 50
143 114 201 76 69 136 91 243 87 74 -3 93 -7 148 -37z"/>
<path d="M5205 1315 c-184 -40 -345 -165 -431 -337 -109 -216 -77 -491 79
-675 195 -231 510 -298 776 -164 33 17 63 31 66 31 3 0 5 -16 5 -35 l0 -35
150 0 150 0 0 610 0 610 -150 0 -150 0 0 -46 c0 -25 -3 -44 -7 -42 -5 2 -37
17 -73 35 -119 58 -283 77 -415 48z m287 -294 c191 -92 263 -327 154 -500 -30
-47 -94 -104 -148 -132 -65 -34 -194 -38 -270 -9 -79 29 -150 96 -190 178 -29
59 -33 76 -33 147 1 67 6 90 30 139 44 92 127 165 225 197 48 16 182 5 232
-20z"/>
<path d="M6525 1319 c-170 -28 -307 -127 -356 -258 -28 -75 -24 -205 10 -269
69 -134 163 -181 466 -233 160 -27 192 -37 221 -72 42 -50 25 -110 -44 -157
-47 -33 -175 -41 -250 -16 -71 24 -132 93 -132 150 l0 26 -160 0 -160 0 0 -23
c0 -40 31 -130 60 -177 87 -136 237 -208 455 -217 264 -12 461 71 538 224 47
93 58 223 25 300 -60 139 -182 208 -450 253 -223 37 -288 68 -288 135 0 74 64
109 200 109 67 0 94 -5 126 -22 44 -22 74 -70 74 -116 l0 -26 155 0 c176 0
166 -7 136 91 -37 116 -121 210 -234 258 -104 45 -266 61 -392 40z"/>
<path d="M2890 710 l0 -610 150 0 150 0 0 610 0 610 -150 0 -150 0 0 -610z"/>
</g>
</svg>
