<?xml version="1.0" standalone="no"?>
<!DOCTYPE svg PUBLIC "-//W3C//DTD SVG 20010904//EN"
 "http://www.w3.org/TR/2001/REC-SVG-20010904/DTD/svg10.dtd">
<svg version="1.0" xmlns="http://www.w3.org/2000/svg"
 width="3840.000000pt" height="2160.000000pt" viewBox="0 0 3840.000000 2160.000000"
 preserveAspectRatio="xMidYMid meet">

<g transform="translate(0.000000,2160.000000) scale(0.100000,-0.100000)"
fill="#000000" stroke="none">
<path d="M21300 21503 c-411 -44 -779 -296 -962 -658 -88 -174 -125 -314 -134
-505 -6 -138 1 -202 45 -397 67 -297 93 -365 267 -702 78 -150 98 -198 109
-260 7 -42 22 -97 33 -122 35 -81 55 -194 48 -267 -10 -98 -225 -1030 -239
-1037 -1 0 -15 -5 -31 -10 -16 -6 -38 -22 -49 -36 -11 -15 -70 -203 -134 -420
-111 -384 -114 -396 -109 -473 l4 -80 -88 -175 c-129 -259 -134 -277 -135
-501 0 -102 -4 -191 -8 -197 -34 -54 -224 -656 -329 -1044 -8 -29 -34 -59
-120 -134 -140 -124 -205 -204 -270 -330 l-52 -100 -7 46 c-9 57 -29 98 -85
171 -43 56 -44 57 -44 135 0 120 -16 134 -194 179 -104 26 -106 27 -129 68
-17 31 -36 47 -82 69 -43 21 -92 60 -176 142 -128 126 -195 167 -342 209 -193
56 -340 56 -519 0 -213 -66 -447 -243 -600 -451 -161 -219 -237 -572 -177
-820 16 -67 69 -179 118 -252 49 -72 186 -217 298 -315 l80 -70 -24 -40 c-13
-23 -33 -72 -44 -111 -12 -38 -30 -88 -42 -110 -41 -81 -293 -315 -339 -315
-41 0 -145 -32 -215 -67 -85 -41 -185 -130 -247 -217 -109 -154 -395 -647
-511 -881 -67 -135 -96 -182 -141 -230 -160 -169 -287 -397 -343 -615 -18 -73
-23 -80 -129 -195 -140 -151 -325 -393 -489 -640 -230 -344 -385 -630 -557
-1028 -111 -254 -115 -260 -413 -563 -98 -100 -196 -206 -218 -236 -25 -35
-56 -64 -85 -79 -25 -13 -110 -59 -190 -103 -80 -43 -169 -89 -198 -102 -105
-47 -447 -109 -662 -121 -63 -3 -125 -10 -137 -14 -34 -12 -31 -63 5 -98 28
-29 76 -41 302 -76 180 -28 374 -13 571 46 106 31 132 29 122 -12 -7 -26 -116
-90 -250 -146 -109 -45 -163 -85 -163 -121 0 -48 100 -89 190 -79 27 3 175 47
328 96 153 50 284 91 290 91 22 0 12 -45 -19 -96 -48 -75 -69 -125 -69 -169 0
-51 13 -65 64 -65 114 0 179 46 310 219 122 162 156 192 226 199 l50 5 80 -80
c44 -45 99 -90 125 -102 113 -53 305 -71 378 -36 65 31 88 115 46 169 -19 25
-45 35 -169 66 -31 8 -58 25 -86 55 -59 61 -65 85 -44 175 17 68 17 80 3 145
-22 104 -12 237 25 345 79 224 158 390 270 560 127 194 159 226 366 364 249
166 375 266 526 416 206 204 324 383 501 759 l94 200 65 22 c153 51 212 100
280 230 l42 80 36 -5 c21 -3 63 -8 94 -11 l56 -6 53 -92 c62 -109 170 -273
248 -376 l56 -74 0 -81 c0 -71 4 -89 32 -146 17 -36 61 -97 96 -136 57 -64 65
-77 71 -125 14 -106 58 -286 107 -431 l49 -148 -65 -77 c-36 -43 -91 -114
-123 -159 l-57 -81 -72 -12 c-137 -23 -249 -103 -303 -217 -55 -119 -62 -174
-69 -544 l-6 -345 -32 -50 c-39 -61 -94 -114 -194 -188 -64 -47 -89 -59 -165
-78 -164 -40 -226 -87 -322 -242 -29 -48 -54 -71 -136 -127 -216 -147 -499
-394 -777 -678 -258 -263 -465 -516 -613 -750 -38 -60 -66 -94 -80 -96 -12 -3
-55 -10 -96 -16 -236 -38 -434 -156 -577 -342 -29 -37 -51 -53 -100 -73 -291
-116 -839 -392 -1103 -555 -218 -134 -282 -175 -400 -254 -508 -342 -974 -748
-1439 -1255 -58 -62 -146 -147 -197 -188 -51 -40 -95 -81 -98 -89 -12 -31 -6
-77 15 -111 12 -19 20 -35 18 -36 -56 -36 -92 -64 -119 -92 -19 -19 -39 -35
-45 -35 -6 0 -37 22 -69 49 -63 53 -85 61 -132 49 -46 -12 -76 -47 -134 -158
-29 -54 -63 -106 -77 -116 -32 -20 -86 -22 -108 -4 -33 28 -75 139 -75 203 0
46 -50 183 -80 218 -25 30 -30 33 -56 24 -19 -7 -37 -25 -52 -55 -29 -57 -25
-107 17 -207 25 -58 31 -86 31 -143 0 -56 6 -88 30 -147 35 -86 37 -114 11
-130 -14 -9 -24 -8 -47 8 -47 31 -76 24 -146 -32 -35 -28 -68 -60 -75 -72 -7
-12 -12 -51 -13 -87 l0 -65 -117 -59 c-104 -52 -128 -60 -201 -67 -46 -4 -88
-12 -95 -17 -7 -6 -100 -40 -207 -78 -178 -61 -205 -68 -305 -74 -60 -4 -132
-15 -159 -24 -27 -9 -65 -16 -85 -16 -20 0 -76 -7 -124 -16 -80 -15 -98 -23
-180 -78 -125 -83 -229 -187 -250 -251 -21 -61 -21 -87 -1 -155 44 -147 360
-517 511 -598 183 -97 451 -107 613 -21 165 86 218 110 294 129 100 25 159 25
266 -1 176 -42 280 -41 394 2 101 37 242 183 261 269 4 19 13 30 24 30 30 0
60 29 98 97 55 100 107 148 171 162 125 26 190 88 280 266 50 100 117 173 189
206 53 24 65 34 83 72 25 54 80 108 140 138 25 12 64 35 87 51 30 20 54 28 85
28 60 0 123 33 260 133 l117 85 67 -24 c82 -30 144 -33 181 -9 16 10 55 44 88
75 77 73 295 244 560 440 116 85 297 219 403 298 107 79 217 152 245 163 86
34 697 363 886 476 314 190 826 542 1102 759 92 72 124 90 233 134 379 151
1362 624 1666 802 446 261 630 362 960 528 124 62 270 136 325 165 149 79 210
98 292 93 62 -3 79 -10 198 -75 221 -122 417 -196 720 -273 215 -54 359 -106
725 -260 140 -59 325 -133 410 -165 85 -32 236 -96 335 -142 471 -221 746
-314 1092 -368 207 -32 244 -40 393 -81 69 -19 191 -47 270 -63 132 -26 151
-32 215 -73 39 -25 158 -89 265 -143 107 -54 220 -114 250 -133 173 -113 730
-527 1133 -841 264 -206 360 -275 457 -325 67 -35 187 -76 222 -76 28 0 234
-146 498 -354 455 -358 545 -408 709 -392 l66 6 135 -108 c74 -60 149 -129
167 -153 60 -84 268 -281 342 -325 18 -10 41 -39 56 -69 13 -27 55 -90 92
-140 74 -98 265 -301 291 -310 11 -3 28 -38 46 -97 31 -99 117 -273 213 -433
68 -112 102 -141 156 -131 52 10 261 155 377 261 210 193 466 383 637 475 232
124 465 283 687 468 152 127 222 191 511 471 224 217 302 302 312 339 10 42
-63 128 -151 176 -192 107 -332 77 -668 -142 -163 -106 -226 -130 -388 -142
-127 -9 -528 -6 -575 5 -42 10 -372 11 -417 2 -25 -5 -38 -4 -38 3 0 15 103
173 181 275 134 177 155 193 349 270 99 39 105 43 108 72 5 49 -21 61 -115 51
-169 -17 -279 -74 -421 -217 -50 -51 -72 -67 -83 -60 -8 5 -28 9 -44 9 -24 0
-43 -13 -90 -60 -63 -64 -120 -90 -193 -90 -43 0 -130 46 -211 112 l-63 51
-53 -18 -53 -18 -53 38 c-30 21 -73 54 -96 72 l-41 33 36 90 c28 71 34 96 26
114 -6 15 -68 64 -168 130 -87 58 -200 143 -250 189 -448 408 -1098 931 -1831
1473 -449 331 -1350 930 -1480 983 -33 13 -118 36 -190 51 l-130 27 -180 179
c-259 258 -569 519 -810 683 -245 167 -451 278 -1119 600 -115 56 -211 103
-213 105 -2 2 12 34 31 71 19 37 40 99 47 136 38 216 -134 428 -492 604 l-75
38 -92 217 -91 217 38 154 c66 267 116 575 140 869 14 171 6 890 -13 1115 -38
462 -54 517 -230 825 -140 243 -164 302 -227 559 -74 304 -90 394 -96 566 -7
222 9 315 87 502 214 514 257 694 261 1083 1 159 4 192 22 235 52 132 79 268
93 470 6 88 12 112 50 200 101 237 153 417 230 809 33 166 53 244 64 255 116
107 128 125 159 243 27 97 45 210 76 457 31 256 32 334 4 380 -22 37 -23 22 7
356 20 221 72 687 83 745 5 25 21 90 36 145 33 125 33 246 -1 310 -12 22 -29
55 -38 72 -38 72 3 98 164 106 305 15 582 134 797 343 494 482 492 1282 -6
1759 -145 140 -333 248 -516 298 -137 38 -324 54 -455 40z"/>
</g>
</svg>
