<?xml version="1.0" standalone="no"?>
<!DOCTYPE svg PUBLIC "-//W3C//DTD SVG 20010904//EN"
 "http://www.w3.org/TR/2001/REC-SVG-20010904/DTD/svg10.dtd">
<svg version="1.0" xmlns="http://www.w3.org/2000/svg"
 width="866.000000pt" height="650.000000pt" viewBox="0 0 866.000000 650.000000"
 preserveAspectRatio="xMidYMid meet">

<g transform="translate(0.000000,650.000000) scale(0.100000,-0.100000)"
fill="#000000" stroke="none">
<path d="M7030 3634 c0 -3 79 -91 175 -195 l176 -190 -169 -182 c-92 -100
-171 -188 -176 -194 -6 -10 26 -13 146 -12 l153 1 155 169 c210 229 197 212
174 242 -11 14 -90 102 -177 196 l-159 171 -149 0 c-82 0 -149 -2 -149 -6z"/>
<path d="M5540 3581 c-100 -31 -160 -106 -160 -201 0 -110 66 -164 252 -206
81 -19 113 -41 104 -72 -17 -53 -140 -49 -243 9 l-52 28 -45 -57 c-25 -31 -46
-60 -46 -64 0 -4 17 -19 38 -33 98 -65 260 -92 367 -60 83 24 150 90 160 158
19 128 -36 190 -210 237 -105 28 -135 45 -135 75 0 51 71 56 173 13 l50 -22
39 45 c64 73 65 74 12 105 -26 15 -70 34 -98 41 -54 14 -165 16 -206 4z"/>
<path d="M1188 3557 c-68 -29 -112 -64 -154 -123 -43 -60 -58 -119 -52 -207 8
-124 76 -219 197 -276 47 -22 70 -26 146 -26 76 0 99 4 146 26 54 26 139 92
139 109 0 5 -34 30 -75 55 l-75 47 -35 -30 c-114 -101 -289 0 -261 151 9 47
59 103 111 123 56 21 106 9 155 -36 l33 -31 65 43 c36 24 70 46 76 50 16 11
-60 85 -119 116 -41 21 -66 26 -145 29 -83 3 -102 1 -152 -20z"/>
<path d="M1918 3567 c-100 -38 -173 -102 -212 -186 -16 -35 -21 -66 -21 -131
0 -73 4 -93 28 -142 35 -72 110 -140 185 -168 46 -18 73 -21 137 -18 135 7
229 68 287 186 29 58 33 76 32 142 -1 182 -137 319 -324 327 -47 2 -89 -2
-112 -10z m155 -171 c18 -7 45 -28 61 -45 24 -25 30 -42 34 -91 4 -52 1 -66
-21 -99 -84 -126 -289 -68 -289 82 0 54 13 85 48 119 51 48 108 59 167 34z"/>
<path d="M2480 3250 l0 -310 85 0 85 0 2 170 3 170 123 -170 123 -170 99 0
100 0 0 310 0 310 -85 0 -85 0 -2 -172 -3 -173 -133 173 -133 172 -90 0 -89 0
0 -310z"/>
<path d="M3230 3553 c0 -5 45 -143 99 -308 l98 -300 142 -3 c77 -1 141 0 141
3 0 6 183 565 196 598 6 16 -1 18 -91 15 l-98 -3 -73 -219 c-40 -120 -75 -221
-78 -223 -4 -5 -15 28 -96 285 l-51 162 -95 0 c-52 0 -94 -3 -94 -7z"/>
<path d="M4040 3250 l0 -310 250 0 250 0 0 80 0 80 -165 0 -165 0 0 40 0 40
150 0 150 0 0 75 0 75 -150 0 -150 0 0 35 0 35 165 0 165 0 0 80 0 80 -250 0
-250 0 0 -310z"/>
<path d="M4710 3245 l0 -315 80 0 80 0 0 115 0 115 48 0 48 0 54 -110 54 -110
71 -1 c68 -1 107 1 112 5 2 1 -25 57 -59 123 l-63 120 32 27 c88 74 84 230 -9
299 -55 41 -91 47 -274 47 l-174 0 0 -315z m340 129 c11 -12 11 -17 -1 -29
-16 -15 -37 -18 -121 -16 -57 1 -58 1 -58 31 l0 30 84 0 c63 0 87 -4 96 -16z"/>
<path d="M6060 3250 l0 -310 255 0 256 0 -3 78 -3 77 -167 3 -168 2 0 40 0 40
150 0 150 0 0 75 0 75 -150 0 -150 0 0 35 0 35 168 2 167 3 0 75 0 75 -252 3
-253 2 0 -310z"/>
<path d="M6977 3408 c-27 -38 -52 -68 -56 -68 -4 0 -40 11 -79 24 -40 14 -72
23 -72 20 0 -3 21 -34 46 -69 28 -40 43 -69 38 -77 -4 -7 -25 -36 -46 -65 -21
-29 -38 -54 -38 -57 0 -3 32 6 72 20 39 13 75 24 79 24 5 0 26 -27 49 -59 41
-62 63 -83 59 -60 -1 8 -1 46 0 85 l1 70 75 24 c42 13 72 27 68 31 -5 3 -38
16 -75 28 l-67 22 -3 87 -3 87 -48 -67z"/>
</g>
</svg>
