<?xml version="1.0" standalone="no"?>
<!DOCTYPE svg PUBLIC "-//W3C//DTD SVG 20010904//EN"
 "http://www.w3.org/TR/2001/REC-SVG-20010904/DTD/svg10.dtd">
<svg version="1.0" xmlns="http://www.w3.org/2000/svg"
 width="866.000000pt" height="650.000000pt" viewBox="0 0 866.000000 650.000000"
 preserveAspectRatio="xMidYMid meet">

<g transform="translate(0.000000,650.000000) scale(0.100000,-0.100000)"
fill="#000000" stroke="none">
<path d="M4045 4699 c72 -4 181 -10 243 -14 98 -6 112 -4 112 9 0 14 -28 16
-242 15 -227 -2 -234 -2 -113 -10z"/>
<path d="M4844 4685 c-9 -14 -15 -27 -13 -30 3 -2 119 -9 259 -16 172 -9 242
-16 215 -21 -22 -4 -79 -7 -126 -7 -47 -1 -153 -4 -236 -7 l-149 -7 -22 -38
c-12 -21 -22 -42 -22 -47 0 -5 109 -15 243 -22 248 -13 346 -29 182 -30 -49 0
-175 -3 -278 -7 l-188 -6 -24 -41 c-22 -37 -23 -41 -7 -47 9 -3 125 -12 257
-19 132 -6 241 -13 243 -15 5 -5 -160 -14 -363 -21 l-191 -6 -22 -39 c-12 -21
-22 -42 -22 -47 0 -5 115 -15 255 -22 140 -8 255 -17 255 -20 0 -7 -316 -20
-471 -20 l-77 0 -27 -46 c-15 -25 -25 -47 -23 -49 2 -2 107 -9 233 -15 127 -7
241 -16 255 -20 21 -7 17 -9 -20 -9 -163 -2 -1357 -43 -1410 -48 -46 -5 131
-18 590 -44 360 -21 683 -38 718 -38 34 -1 62 -5 62 -9 0 -5 -94 -12 -208 -15
-506 -16 -1327 -48 -1331 -52 -2 -3 9 -5 25 -5 82 1 1365 -72 1399 -79 38 -8
37 -9 -25 -10 -36 -1 -234 -8 -440 -16 -206 -7 -530 -20 -720 -27 -190 -7
-336 -14 -325 -15 11 -2 341 -21 734 -43 392 -21 715 -41 718 -43 8 -8 -176
-17 -837 -39 -371 -12 -661 -26 -645 -30 17 -4 334 -23 705 -43 371 -20 680
-38 685 -39 26 -8 -87 -16 -395 -26 -184 -5 -350 -10 -367 -10 -31 0 -33 -2
-33 -34 0 -19 3 -37 8 -39 4 -3 163 -13 355 -23 191 -9 347 -21 347 -24 0 -4
-98 -10 -217 -14 -120 -3 -278 -9 -350 -13 l-133 -6 0 -38 c0 -35 2 -37 38
-43 20 -3 147 -10 282 -17 404 -19 386 -24 -157 -45 l-163 -7 0 -38 c0 -21 4
-40 9 -44 5 -3 125 -12 267 -20 142 -9 259 -17 261 -19 5 -5 -181 -16 -268
-16 -42 0 -117 -3 -167 -6 l-92 -7 0 -47 0 -47 110 -7 c325 -19 338 -20 285
-27 -27 -4 -97 -8 -155 -8 -58 -1 -135 -4 -172 -8 -58 -5 -68 -9 -68 -25 0
-18 21 -19 778 -16 l777 3 88 28 c229 71 431 225 510 388 43 88 72 229 62 298
-17 114 -84 199 -196 250 l-60 27 68 28 c148 61 318 204 380 321 62 118 84
268 55 372 -28 98 -120 186 -225 218 -97 29 -211 35 -734 35 l-523 0 -16 -25z
m832 -416 c61 -29 90 -88 74 -147 -14 -52 -76 -121 -141 -157 -53 -30 -56 -30
-236 -33 -129 -3 -183 -1 -183 7 0 10 147 276 187 340 15 23 17 24 134 18 95
-4 128 -10 165 -28z m-247 -667 c55 -27 76 -64 76 -130 -1 -103 -70 -197 -185
-251 -54 -25 -60 -26 -303 -29 -205 -3 -248 -1 -245 10 1 8 54 105 116 216
l114 202 196 0 c168 0 202 -3 231 -18z"/>
<path d="M4050 4579 c-118 -5 -224 -10 -235 -11 -11 -2 77 -9 195 -16 118 -7
254 -15 303 -19 l87 -6 0 32 0 31 -67 -2 c-38 0 -165 -5 -283 -9z"/>
<path d="M4085 4429 c-99 -3 -225 -7 -279 -8 -55 0 -97 -3 -95 -5 2 -2 139
-11 304 -20 165 -9 321 -18 348 -21 l47 -6 0 36 0 35 -72 -2 c-40 -1 -154 -5
-253 -9z"/>
<path d="M4000 4280 c-91 -4 -214 -8 -274 -9 -60 0 -107 -3 -105 -6 8 -7 788
-49 795 -42 3 3 3 19 -1 36 l-7 31 -121 -2 c-67 -1 -196 -5 -287 -8z"/>
<path d="M3887 4125 c-175 -7 -320 -14 -322 -17 -2 -2 145 -12 328 -22 183 -9
376 -20 430 -23 l97 -6 0 41 0 42 -107 -1 c-60 -1 -251 -7 -426 -14z"/>
<path d="M3355 3359 c-115 -5 -219 -10 -230 -11 -11 -2 84 -9 210 -16 127 -7
273 -16 325 -19 l96 -6 12 27 c6 15 12 29 12 31 0 6 -166 4 -425 -6z"/>
<path d="M3380 3210 c-91 -4 -210 -8 -265 -9 -55 -2 -95 -4 -90 -6 12 -5 532
-35 598 -35 42 0 48 3 62 30 l16 30 -78 -2 c-43 -1 -152 -5 -243 -8z"/>
<path d="M3265 3055 c-159 -6 -283 -14 -275 -17 8 -3 125 -11 260 -18 135 -6
264 -13 287 -16 39 -6 43 -4 57 24 21 41 21 42 -11 40 -16 -1 -158 -6 -318
-13z"/>
<path d="M3081 2899 c-112 -4 -211 -10 -220 -11 -9 -2 94 -9 229 -16 135 -7
281 -15 325 -18 l80 -6 17 31 17 31 -122 -2 c-67 0 -214 -5 -326 -9z"/>
<path d="M3076 2749 c-109 -5 -204 -10 -210 -13 -6 -2 116 -5 270 -5 239 -1
283 1 294 14 14 17 -15 18 -354 4z"/>
<path d="M3367 2208 l2 -403 66 -3 65 -3 0 35 0 35 49 -30 c134 -84 322 -25
398 125 35 68 43 181 18 255 -24 74 -100 154 -173 181 -80 31 -165 24 -233
-18 l-49 -31 0 129 0 130 -72 0 -73 0 2 -402z m378 63 c101 -47 136 -161 80
-258 -58 -98 -205 -114 -282 -31 -110 118 -31 303 132 307 17 0 48 -8 70 -18z"/>
<path d="M4747 2603 c-9 -8 -9 -766 -1 -787 5 -12 21 -16 75 -16 l69 0 0 405
0 405 -68 0 c-38 0 -72 -3 -75 -7z"/>
<path d="M1384 2405 c-17 -8 -36 -21 -43 -29 -19 -23 -31 -20 -31 9 0 24 -2
25 -65 25 l-65 0 0 -295 c0 -162 -1 -298 -2 -302 -2 -5 30 -9 70 -11 l72 -3 0
173 c0 95 5 191 10 212 18 81 78 122 140 96 57 -24 64 -53 70 -275 l5 -200 73
-3 72 -3 0 204 c0 230 -10 283 -63 344 -17 20 -50 44 -72 54 -47 22 -127 23
-171 4z"/>
<path d="M1943 2399 c-60 -23 -132 -88 -161 -146 -68 -133 -33 -304 81 -395
143 -112 353 -79 449 71 42 67 39 71 -43 71 -66 0 -73 -2 -111 -34 -71 -61
-159 -55 -223 16 -19 21 -35 43 -35 48 0 6 84 10 230 10 l230 0 0 73 c0 62 -5
83 -31 135 -71 144 -237 208 -386 151z m166 -119 c40 -11 77 -43 98 -84 16
-31 6 -47 -26 -41 -9 2 -76 4 -148 4 -152 1 -157 5 -97 71 49 54 104 70 173
50z"/>
<path d="M4250 2411 c-87 -27 -155 -87 -194 -170 -29 -64 -29 -197 1 -262 28
-62 82 -120 137 -148 89 -44 214 -37 284 15 17 14 32 24 33 22 1 -2 2 -16 3
-33 1 -30 1 -30 69 -33 l67 -3 0 296 0 295 -75 0 c-68 0 -75 -2 -75 -20 0 -18
-2 -18 -36 5 -61 41 -148 56 -214 36z m166 -140 c94 -43 133 -162 83 -251 -32
-57 -90 -90 -158 -90 -58 0 -93 15 -133 57 -134 141 30 365 208 284z"/>
<path d="M5147 2404 c-69 -21 -148 -101 -177 -179 -28 -76 -24 -174 10 -253
69 -159 284 -224 417 -126 l32 24 3 -32 3 -33 65 0 65 0 3 293 2 292 -75 0
c-68 0 -75 -2 -75 -20 0 -18 -2 -18 -36 5 -68 46 -149 56 -237 29z m180 -129
c48 -20 71 -41 94 -87 45 -87 7 -197 -83 -244 -35 -18 -121 -18 -157 0 -134
70 -133 265 3 327 50 23 95 24 143 4z"/>
<path d="M5864 2401 c-23 -10 -45 -24 -48 -30 -12 -19 -26 -12 -26 14 0 24 -2
25 -65 25 l-65 0 0 -305 0 -305 69 0 68 0 5 193 c5 217 15 254 68 282 42 22
93 13 119 -21 31 -39 41 -112 41 -289 l0 -165 70 0 70 0 0 214 c0 227 -6 264
-51 326 -31 42 -112 80 -168 80 -26 0 -65 -9 -87 -19z"/>
<path d="M6433 2401 c-219 -75 -282 -352 -118 -517 146 -146 398 -114 497 64
l30 52 -84 0 c-81 0 -85 -1 -113 -30 -16 -17 -45 -35 -65 -41 -70 -21 -167 27
-196 98 -33 78 -3 193 59 232 73 45 149 36 207 -24 33 -34 37 -35 107 -35 87
0 91 8 39 85 -78 117 -226 164 -363 116z"/>
<path d="M7078 2405 c-90 -34 -163 -107 -194 -192 -7 -21 -13 -72 -14 -114 0
-65 4 -84 31 -138 87 -173 308 -224 462 -106 43 33 97 107 97 133 0 8 -24 12
-73 12 -68 0 -75 -2 -102 -30 -63 -66 -165 -60 -230 11 -19 22 -35 44 -35 49
0 6 84 10 230 10 l230 0 1 33 c2 76 -4 115 -25 162 -52 115 -142 177 -266 182
-48 2 -88 -2 -112 -12z m151 -125 c19 -5 45 -20 59 -32 27 -26 56 -77 48 -85
-3 -3 -75 -6 -160 -7 -179 -1 -185 2 -120 74 49 54 104 70 173 50z"/>
<path d="M2351 2393 c0 -10 44 -146 97 -303 l97 -285 48 -3 c26 -2 47 -1 47 1
0 9 110 371 114 375 3 2 14 -29 26 -70 12 -40 27 -93 35 -118 8 -25 23 -78 35
-117 l21 -73 48 0 47 0 94 293 c51 160 96 298 98 305 3 9 -12 12 -56 12 l-60
0 -57 -172 c-32 -95 -61 -176 -64 -181 -4 -4 -26 62 -49 147 -61 224 -51 208
-119 204 l-56 -3 -47 -165 c-25 -91 -49 -172 -51 -180 -3 -8 -33 66 -66 165
l-60 180 -61 3 c-54 3 -62 1 -61 -15z"/>
</g>
</svg>
