<?xml version="1.0" standalone="no"?>
<!DOCTYPE svg PUBLIC "-//W3C//DTD SVG 20010904//EN"
 "http://www.w3.org/TR/2001/REC-SVG-20010904/DTD/svg10.dtd">
<svg version="1.0" xmlns="http://www.w3.org/2000/svg"
 width="3840.000000pt" height="2160.000000pt" viewBox="0 0 3840.000000 2160.000000"
 preserveAspectRatio="xMidYMid meet">

<g transform="translate(0.000000,2160.000000) scale(0.100000,-0.100000)"
fill="#000000" stroke="none">
<path d="M1826 17899 c-233 -9 -539 -31 -821 -60 -244 -25 -473 -54 -480 -60
-7 -8 210 -921 526 -2204 285 -1161 634 -2531 1304 -5125 653 -2528 894 -3475
1255 -4935 l201 -810 175 -365 c97 -201 179 -368 182 -372 10 -10 227 -14
2174 -48 l1657 -29 192 87 c106 48 196 94 201 102 4 8 641 2414 1413 5345 773
2932 1411 5348 1418 5370 7 22 89 156 181 298 l169 257 121 0 c66 0 537 9
1046 21 788 17 1173 20 2600 19 921 -1 1761 -3 1865 -5 105 -1 1407 -6 2895
-9 1488 -4 2867 -9 3065 -11 198 -2 1546 -7 2995 -10 1449 -3 2786 -8 2970
-10 373 -5 5341 -19 6690 -20 l866 0 79 39 c143 70 229 181 272 352 16 62 18
124 18 584 1 553 4 596 57 738 18 48 20 70 15 181 -3 69 -12 153 -21 186 -55
205 -188 334 -404 394 -182 50 -407 52 -902 7 -436 -40 -666 -40 -818 -2 -64
16 -1636 21 -9027 31 -2139 3 -4821 7 -5960 10 -1138 3 -4041 7 -6450 11
l-4380 5 -135 -114 -135 -113 -1220 -4783 -1220 -4782 -134 -152 c-73 -84
-136 -155 -140 -159 -4 -4 -34 14 -67 41 l-60 49 -48 178 c-269 1003 -511
2049 -985 4254 -491 2284 -754 3380 -1096 4560 -142 491 -282 940 -293 940 -4
0 -70 11 -147 25 -488 88 -1035 119 -1659 94z"/>
<path d="M37431 14889 c-176 -30 -343 -190 -380 -367 -64 -305 159 -582 469
-582 296 0 518 260 471 551 -32 199 -190 362 -385 398 -68 12 -99 12 -175 0z
m242 -112 c75 -34 166 -121 203 -194 27 -54 29 -66 29 -168 0 -101 -2 -115
-28 -168 -84 -170 -275 -259 -457 -213 -115 30 -202 103 -257 215 -35 72 -44
212 -19 289 37 112 143 216 254 253 82 27 198 22 275 -14z"/>
<path d="M37310 14415 l0 -265 65 0 64 0 3 93 3 92 30 3 c75 9 125 -30 125
-97 0 -16 3 -43 6 -60 6 -31 7 -31 72 -31 l65 0 -5 73 c-6 87 -27 132 -73 154
l-34 16 39 18 c66 30 89 110 53 186 -12 26 -30 42 -67 59 -46 22 -65 24 -198
24 l-148 0 0 -265z m270 150 c26 -23 27 -78 1 -104 -19 -19 -112 -38 -131 -26
-5 3 -10 40 -10 82 l0 75 60 -4 c39 -3 66 -11 80 -23z"/>
<path d="M33215 14104 c-741 -39 -1390 -180 -2000 -435 -240 -101 -569 -277
-770 -412 -76 -51 -282 -252 -387 -377 -224 -266 -411 -620 -512 -969 -173
-594 -145 -1333 71 -1886 330 -845 1054 -1514 1898 -1754 61 -17 148 -47 195
-66 258 -103 524 -149 1190 -205 667 -56 918 -94 1167 -175 343 -113 577 -304
680 -557 56 -139 75 -239 80 -438 l6 -186 -28 -54 c-160 -320 -530 -595 -915
-681 -47 -10 -182 -26 -300 -35 -316 -24 -581 -3 -889 72 -302 73 -594 187
-1156 449 -454 212 -649 294 -881 368 -226 73 -189 82 -336 -85 -516 -584
-864 -1117 -1078 -1648 l-50 -125 33 -28 c444 -382 806 -582 1732 -954 198
-80 432 -176 520 -213 346 -147 980 -271 1585 -311 225 -14 693 -7 900 15 638
68 1176 218 1696 475 393 194 702 404 1036 707 542 490 850 1190 898 2042 24
425 -42 886 -187 1312 -250 736 -748 1213 -1608 1540 -282 107 -543 182 -1275
365 -564 142 -791 205 -1054 295 -371 127 -700 287 -944 459 -62 44 -77 61
-106 120 -49 96 -66 172 -66 288 0 236 107 460 322 675 95 95 118 112 202 153
279 134 602 195 916 175 457 -31 888 -181 1695 -594 245 -125 536 -266 549
-266 10 0 245 209 365 325 500 484 761 956 761 1380 l0 92 -77 55 c-858 613
-1922 984 -3093 1078 -139 11 -660 20 -785 14z"/>
<path d="M14080 13664 c-405 -18 -734 -44 -950 -74 -161 -23 -395 -63 -402
-69 -19 -17 -826 -2650 -1207 -3936 -577 -1950 -982 -3402 -1481 -5320 -22
-82 -36 -153 -32 -156 11 -11 274 -66 422 -88 448 -67 977 -85 1520 -50 174
11 563 48 569 55 2 2 97 326 211 720 l207 716 69 69 c185 187 437 301 784 354
167 26 563 30 895 10 154 -9 440 -20 635 -24 l355 -7 95 -33 c219 -74 358
-199 467 -416 64 -126 111 -277 188 -605 95 -402 150 -564 238 -702 l35 -55
273 -6 c151 -3 415 -15 588 -26 602 -39 939 -38 1231 5 183 26 440 94 440 115
0 6 -389 1584 -865 3507 l-864 3497 -386 1185 c-213 652 -389 1188 -393 1191
-21 20 -924 99 -1472 129 -185 11 -1029 21 -1170 14z m481 -3181 c242 -513
406 -934 509 -1310 61 -221 94 -394 135 -705 l5 -37 -125 -41 c-158 -51 -334
-94 -452 -110 -115 -16 -345 -8 -428 14 -73 20 -229 96 -271 133 l-32 28 33
142 c19 79 54 265 80 415 130 771 191 1015 324 1293 51 107 156 285 167 285 2
0 27 -48 55 -107z"/>
<path d="M26614 13619 c-272 -16 -603 -79 -759 -146 l-64 -28 -5 -535 c-2
-332 -10 -632 -20 -790 -9 -140 -29 -457 -46 -705 -16 -247 -35 -542 -42 -655
-7 -118 -13 -412 -13 -693 0 -480 0 -488 -20 -492 -11 -2 -69 -14 -130 -25
-60 -12 -117 -23 -126 -26 -12 -3 -53 62 -171 273 -85 153 -572 1028 -1082
1944 l-927 1666 -142 97 -142 96 -300 9 c-354 11 -1013 6 -1275 -9 -281 -16
-593 -47 -820 -80 -205 -31 -387 -63 -394 -71 -8 -10 -57 -742 -80 -1209 -65
-1293 -78 -2305 -71 -5368 l5 -2357 81 -249 80 -248 37 6 c213 33 544 38 977
12 668 -39 994 -8 1277 121 l76 35 6 102 c3 55 22 944 42 1975 l37 1874 69 66
c77 73 134 105 172 95 19 -4 57 -55 154 -202 393 -599 681 -1110 1257 -2232
420 -819 730 -1392 930 -1721 l28 -46 236 -7 c222 -6 374 -15 941 -51 932 -59
1418 -42 1896 67 l91 21 7 196 c19 592 42 1776 57 2916 13 1032 7 4107 -11
4970 -17 877 -27 1255 -32 1260 -6 6 -163 29 -478 69 -599 76 -941 96 -1306
75z"/>
</g>
</svg>
