<?xml version="1.0" standalone="no"?>
<!DOCTYPE svg PUBLIC "-//W3C//DTD SVG 20010904//EN"
 "http://www.w3.org/TR/2001/REC-SVG-20010904/DTD/svg10.dtd">
<svg version="1.0" xmlns="http://www.w3.org/2000/svg"
 width="3840.000000pt" height="2160.000000pt" viewBox="0 0 3840.000000 2160.000000"
 preserveAspectRatio="xMidYMid meet">

<g transform="translate(0.000000,2160.000000) scale(0.100000,-0.100000)"
fill="#000000" stroke="none">
<path d="M14160 15792 c0 -4 -20 -14 -45 -21 -93 -27 -165 -88 -475 -400 -353
-354 -354 -355 -397 -441 -59 -117 -42 -234 52 -365 53 -74 619 -637 695 -692
60 -44 161 -83 213 -83 54 0 129 27 197 71 41 26 170 147 360 338 319 319 346
348 382 407 92 148 76 283 -52 438 -59 72 -613 618 -667 658 -33 24 -82 52
-109 62 -27 9 -57 21 -66 27 -21 11 -88 12 -88 1z"/>
<path d="M30255 13299 c-390 -12 -671 -57 -1095 -174 -57 -16 -262 -95 -360
-138 -124 -55 -329 -165 -361 -193 -8 -8 -19 -14 -22 -14 -9 0 -175 -120 -247
-178 -356 -287 -668 -715 -839 -1152 -19 -47 -40 -98 -47 -115 -27 -65 -85
-251 -114 -368 -17 -67 -35 -138 -40 -157 -12 -43 -43 -224 -67 -390 -26 -181
-26 -757 0 -945 48 -342 93 -543 179 -800 348 -1035 1062 -1698 2113 -1964
212 -53 413 -86 655 -105 107 -9 234 -21 281 -26 116 -13 3314 -14 3406 0 38
5 138 15 223 21 85 6 207 17 270 25 277 35 657 131 865 219 17 7 59 25 95 40
598 250 1105 730 1401 1327 128 258 169 366 262 693 16 56 58 248 81 370 8 44
22 157 31 250 9 94 21 193 27 220 11 54 5 330 -11 495 -39 411 -122 789 -241
1100 -12 30 -27 71 -34 90 -24 63 -110 243 -160 335 -43 79 -170 283 -203 325
-69 89 -157 195 -198 239 -332 354 -690 587 -1160 754 -371 133 -766 201
-1250 217 -316 11 -3103 10 -3440 -1z m3610 -1547 c388 -68 688 -211 921 -439
220 -215 375 -503 463 -858 38 -153 64 -415 58 -570 -26 -626 -259 -1127 -667
-1434 -168 -127 -420 -238 -655 -290 -239 -52 -190 -51 -2051 -51 -1650 1
-1735 1 -1864 20 -168 24 -320 59 -429 100 -503 186 -836 553 -993 1094 -151
521 -103 1113 128 1570 46 91 139 236 191 298 51 62 191 195 254 242 73 55
232 150 269 161 14 4 27 11 30 15 7 10 203 79 290 101 79 21 286 56 360 62 25
2 837 3 1805 3 l1760 -2 130 -22z"/>
<path d="M1893 13056 c-60 -15 -120 -56 -135 -95 -6 -14 -15 -36 -21 -48 -8
-17 -5 -39 12 -93 20 -62 120 -217 747 -1157 398 -597 724 -1089 724 -1094 0
-4 4 -9 8 -11 4 -1 455 -673 1001 -1493 547 -819 1025 -1533 1064 -1585 187
-253 342 -422 528 -575 84 -69 246 -158 379 -208 138 -51 243 -75 435 -98 312
-37 280 -37 650 7 446 53 776 244 1106 639 101 121 261 334 295 393 10 17 22
32 25 32 4 0 9 6 11 13 2 6 48 79 103 160 55 81 105 156 110 165 17 27 170
257 175 262 6 6 140 207 155 232 5 10 77 118 160 240 82 123 154 231 160 240
5 10 568 853 1250 1875 682 1021 1251 1880 1264 1908 35 72 36 167 1 213 -33
44 -73 67 -140 82 -85 18 -1281 8 -1371 -12 -126 -28 -234 -98 -301 -197 -18
-25 -36 -50 -41 -56 -4 -5 -75 -111 -157 -235 -83 -124 -154 -232 -160 -240
-6 -8 -78 -116 -160 -240 -82 -124 -154 -232 -160 -240 -6 -8 -78 -116 -160
-240 -82 -124 -154 -232 -160 -240 -5 -8 -42 -64 -82 -125 -40 -60 -76 -114
-81 -120 -5 -5 -38 -56 -75 -112 -37 -56 -73 -110 -80 -120 -6 -10 -80 -121
-163 -248 -83 -126 -155 -231 -160 -233 -5 -2 -9 -8 -9 -12 0 -5 -68 -112
-152 -237 -83 -125 -276 -417 -429 -648 -153 -231 -283 -427 -289 -435 -5 -8
-132 -198 -280 -422 -292 -441 -320 -476 -421 -529 -37 -19 -59 -23 -134 -23
-78 0 -97 3 -140 26 -109 57 -73 7 -1007 1418 -104 157 -195 294 -204 305 -8
11 -45 67 -82 125 -36 58 -69 107 -72 110 -3 3 -38 55 -78 115 -39 61 -77 118
-84 128 -7 10 -43 64 -80 120 -37 56 -70 107 -75 112 -5 6 -30 44 -57 85 -69
106 -259 393 -269 405 -4 5 -277 415 -606 910 -429 645 -615 917 -658 960 -81
82 -159 119 -296 139 -90 13 -205 16 -695 15 -436 0 -600 -4 -639 -13z"/>
<path d="M13697 13055 c-147 -32 -214 -105 -243 -264 -11 -63 -13 -587 -13
-2966 0 -3049 -1 -2973 43 -3076 21 -51 105 -124 158 -137 162 -42 159 -42
571 -42 230 0 414 4 431 10 17 5 64 19 103 30 129 37 191 120 212 285 18 135
11 5871 -7 5935 -35 123 -116 199 -242 225 -95 20 -922 20 -1013 0z"/>
<path d="M16419 13052 c-125 -46 -169 -153 -116 -282 13 -30 79 -138 147 -240
69 -102 129 -193 135 -202 5 -9 435 -653 954 -1430 520 -777 1230 -1840 1578
-2361 566 -848 773 -1151 807 -1182 6 -5 27 -30 46 -55 81 -104 286 -319 343
-357 18 -13 42 -31 53 -41 32 -29 130 -91 217 -137 153 -81 336 -135 537 -159
347 -42 356 -42 485 -26 44 5 139 17 212 25 375 44 666 183 933 446 151 148
256 275 438 529 46 64 1757 2623 1777 2658 6 9 75 114 154 232 762 1137 1495
2239 1511 2270 74 145 26 279 -113 316 -78 21 -1191 20 -1332 -1 -55 -8 -111
-20 -125 -26 -123 -55 -173 -98 -267 -231 -55 -78 -959 -1433 -2038 -3058
-258 -388 -587 -883 -731 -1100 -144 -217 -283 -417 -309 -443 -69 -72 -139
-102 -245 -102 -71 0 -93 5 -134 25 -72 36 -142 110 -223 235 -40 61 -76 115
-81 120 -13 15 -146 218 -151 230 -2 6 -7 12 -10 15 -4 3 -39 55 -79 115 -39
61 -77 118 -84 128 -7 10 -43 64 -80 120 -37 56 -72 109 -78 117 -6 8 -258
389 -562 845 -1412 2127 -1860 2794 -1918 2858 -47 50 -80 76 -134 102 -122
59 -212 65 -889 64 -517 -1 -587 -2 -628 -17z"/>
</g>
</svg>
